<svg width="51" height="50" viewBox="0 0 51 50" fill="none" xmlns="http://www.w3.org/2000/svg">
<g id="envelope-solid 1" clip-path="url(#clip0_246_105)">
<path id="Vector" d="M5.1875 6.25C2.59961 6.25 0.5 8.34961 0.5 10.9375C0.5 12.4121 1.19336 13.7988 2.375 14.6875L23.625 30.625C24.7383 31.4551 26.2617 31.4551 27.375 30.625L48.625 14.6875C49.8066 13.7988 50.5 12.4121 50.5 10.9375C50.5 8.34961 48.4004 6.25 45.8125 6.25H5.1875ZM0.5 17.1875V37.5C0.5 40.9473 3.30273 43.75 6.75 43.75H44.25C47.6973 43.75 50.5 40.9473 50.5 37.5V17.1875L29.25 33.125C27.0234 34.7949 23.9766 34.7949 21.75 33.125L0.5 17.1875Z" fill="#3A3946"/>
</g>
<defs>
<clipPath id="clip0_246_105">
<rect width="50" height="50" fill="white" transform="translate(0.5)"/>
</clipPath>
</defs>
</svg>
