<svg width="51" height="50" viewBox="0 0 51 50" fill="none" xmlns="http://www.w3.org/2000/svg">
<g id="phone-solid 1" clip-path="url(#clip0_246_101)">
<path id="Vector" d="M16.6035 2.40235C15.8516 0.585942 13.8691 -0.380855 11.9746 0.136723L3.38086 2.48047C1.68164 2.94922 0.5 4.49219 0.5 6.25C0.5 30.4102 20.0898 50 44.25 50C46.0078 50 47.5508 48.8184 48.0195 47.1191L50.3633 38.5254C50.8809 36.6309 49.9141 34.6484 48.0977 33.8965L38.7227 29.9902C37.1309 29.3262 35.2852 29.7852 34.2012 31.1231L30.2559 35.9375C23.3809 32.6856 17.8145 27.1191 14.5625 20.2441L19.377 16.3086C20.7148 15.2148 21.1738 13.3789 20.5098 11.7871L16.6035 2.41211V2.40235Z" fill="#3A3946"/>
</g>
<defs>
<clipPath id="clip0_246_101">
<rect width="50" height="50" fill="white" transform="translate(0.5)"/>
</clipPath>
</defs>
</svg>
